<?xml version="1.0" encoding="utf-8"?>
<svg width="134px" height="134px" viewBox="0 0 134 134" version="1.1" xmlns:xlink="http://www.w3.org/1999/xlink" xmlns="http://www.w3.org/2000/svg">
  <defs>
    <filter id="filter_1">
      <feColorMatrix in="SourceGraphic" type="matrix" values="0 0 0 0 0 0 0 0 0 0 0 0 0 0 0 0 0 0 1 0" />
    </filter>
    <path d="M0 0L134 0L134 134L0 134L0 0Z" id="path_1" />
    <clipPath id="mask_1">
      <use xlink:href="#path_1" />
    </clipPath>
  </defs>
  <g id="Github-icon" filter="url(#filter_1)">
    <path d="M0 0L134 0L134 134L0 134L0 0Z" id="Background" fill="none" fill-rule="evenodd" stroke="none" />
    <g clip-path="url(#mask_1)">
      <path d="M54.4375 0C24.3726 0 0 24.3398 0 54.3394C0 78.352 15.605 98.7334 37.2295 105.931C39.9448 106.421 41.875 103.641 41.875 101.547C41.875 100.271 41.9077 98.7334 41.875 94.2187C26.728 97.4902 21.9844 86.8906 21.9844 86.8906C19.498 80.6094 16.4883 78.8101 16.4883 78.8101C11.5483 75.4404 16.8481 75.5386 16.8481 75.5386C22.3115 75.8984 25.125 80.6094 25.125 80.6094C29.3125 87.9375 38.7671 87.2178 41.875 85.8437C41.875 82.5068 42.2349 80.0859 43.1509 78.5483C26.041 75.5386 16.7173 65.6587 16.75 51.9839C16.7827 43.9033 19.5635 37.6221 24.0781 32.9766C22.1152 30.4902 20.7739 21.9844 24.7979 16.75C34.9067 16.75 40.9263 24.0454 40.9263 24.0454C40.9263 24.0454 45.6699 21.9844 54.4048 21.9844C63.1724 21.9844 67.8833 23.9473 67.8833 23.9473C67.8833 23.9473 73.9355 16.75 84.0444 16.75C88.0684 21.9844 86.727 30.4902 85.1567 32.813C89.4751 37.3604 92.125 43.6416 92.125 51.9839C92.125 65.6587 82.834 75.5386 65.7568 78.5156C66.8364 80.1514 67 82.4414 67 85.8437C67 93.1064 67 99.7476 67 101.547C67 103.641 68.8975 106.454 71.6782 105.931C93.3027 98.7007 108.875 78.352 108.875 54.3394C108.875 24.3398 84.5024 0 54.4375 0L54.4375 0Z" transform="translate(8.375 8.375)" id="Shape" fill="#FFFFFF" fill-rule="evenodd" stroke="none" />
    </g>
  </g>
</svg>