<?xml version="1.0" encoding="utf-8"?>
<svg width="106px" height="106px" viewBox="0 0 106 106" version="1.1" xmlns:xlink="http://www.w3.org/1999/xlink" xmlns="http://www.w3.org/2000/svg">
  <defs>
    <path d="M0 0L111 0L111 111L0 111L0 0Z" id="path_1" />
    <rect width="106" height="106" id="slice_1" />
    <clipPath id="clip_1">
      <use xlink:href="#slice_1" clip-rule="evenodd" />
    </clipPath>
    <clipPath id="mask_1">
      <use xlink:href="#path_1" />
    </clipPath>
  </defs>
  <g id="Slice" clip-path="url(#clip_1)">
    <use xlink:href="#slice_1" stroke="none" fill="none" />
    <g id="icons8-octocat" transform="translate(-2.5000076 -2.5)">
      <path d="M0 0L111 0L111 111L0 111L0 0Z" id="Background" fill="none" fill-rule="evenodd" stroke="none" />
      <g clip-path="url(#mask_1)">
        <path d="M110.687 0.000263898L110.687 110.687L0 110.687L0.000267029 0L110.687 0.000263898L110.687 0.000263898L110.687 0.000263898ZM100.625 10.0628L10.0622 10.0626L10.062 100.625L100.625 100.625L100.625 10.0628L100.625 10.0628L100.625 10.0628ZM55.8053 20.125C75.5228 20.1251 90.5622 35.0919 90.5621 54.764C90.5621 70.5269 80.6646 84.0197 66.4966 88.7642C64.6601 89.0862 64.0203 87.9601 64.0203 87.0444C64.0203 86.169 64.0596 81.3021 64.0596 78.3086C64.0596 78.3086 74.044 80.458 76.1169 74.0734C76.1169 74.0734 77.743 69.9616 80.0574 68.8849C80.0574 68.8849 83.2931 66.6533 79.8216 66.6936C79.8216 66.6936 76.3053 66.9777 74.3481 70.3687C71.2388 75.8779 66.0187 74.2717 63.981 73.3559C63.664 71.0818 62.7377 69.486 61.7012 68.5704C69.6456 67.695 77.6695 66.5369 77.6695 52.8871C77.6695 48.9728 76.5928 47.0206 74.3187 44.505C74.681 43.5843 75.9123 39.7559 73.9552 34.8454C70.9616 33.9247 64.1383 38.6778 64.1383 38.6778C61.3057 37.918 58.2398 37.4788 55.2059 37.4788C52.1721 37.4788 49.0962 37.918 46.2637 38.6777C46.2637 38.6777 39.4404 33.9296 36.4468 34.8453C34.4947 39.796 35.7359 43.5892 36.0931 44.5049C33.8189 47.0205 32.4178 48.9777 32.4178 52.887C32.4178 66.6123 40.8006 67.6949 48.7399 68.5704C47.4217 69.6873 46.3029 71.8034 46.3029 75.1542C46.3029 79.9439 46.3422 85.8971 46.3422 87.0543C46.3422 87.97 45.7012 89.0811 43.9052 88.7641C29.7422 84.0146 20.1247 70.5267 20.1247 54.7639C20.1248 35.0917 36.0879 20.125 55.8053 20.125L55.8053 20.125L55.8053 20.125ZM75.0355 68.0613C76.5052 67.5456 77.7424 67.8483 78.1623 68.8797C78.5822 69.9111 77.9917 71.3736 76.522 72.405C75.2623 73.1785 73.8151 72.9388 73.3952 71.6496C72.9753 70.6182 73.5658 69.0605 75.0355 68.0613L75.0355 68.0613L75.0355 68.0613ZM74.618 69.0907C75.2367 68.9501 75.8268 69.0339 76.2894 69.5025C77.2146 70.2521 77.0382 71.7137 75.928 73.0256C74.8179 73.9626 73.3749 74.5116 72.4498 73.5746C71.5246 72.825 71.701 71.3634 72.8112 70.0515C73.3662 69.583 73.9994 69.2312 74.618 69.0907L74.618 69.0907L74.618 69.0907ZM72.8935 70.9792C73.5185 70.7835 74.1976 70.8189 74.7194 71.132C75.7631 71.7582 75.7631 73.186 74.7194 74.4187C73.6758 75.6515 72.107 76.2678 71.2373 75.6417C70.2154 75.0156 70.2154 73.4535 71.2373 72.2403C71.6722 71.6142 72.2684 71.1748 72.8935 70.9792L72.8935 70.9792L72.8935 70.9792ZM71.8031 72.8961C72.429 72.8191 72.9933 73.0355 73.377 73.4971C74.1253 74.2665 73.8363 75.7635 72.6275 76.8406C71.4187 78.0716 69.9098 78.2522 69.1423 77.329C68.3749 76.7135 68.8174 75.0251 69.8918 73.9479C70.4962 73.3325 71.1771 72.973 71.8031 72.8961L71.8031 72.8961L71.8031 72.8961ZM68.4653 74.568C69.651 74.1965 71.1011 74.7189 71.3683 76.0192C71.6355 77.3194 70.6979 78.8221 69.3786 79.1936C68.1929 79.9366 66.7429 79.1555 66.4757 77.8785C66.0748 76.6014 67.0124 75.1253 68.4653 74.568L68.4653 74.568L68.4653 74.568ZM63.6157 74.6328C64.9564 75.0147 65.906 76.3457 65.7703 77.8494C65.6345 79.1621 64.2935 79.9095 62.9528 79.5275C61.4763 79.1457 60.5267 77.834 60.7982 76.4974C60.934 75.1608 62.258 74.418 63.6157 74.6328L63.6157 74.6328L63.6157 74.6328ZM66.0788 74.9356C67.5135 74.9356 68.5307 76.0807 68.5307 77.4302C68.5307 78.9484 67.5003 80.1176 65.9514 79.9248C64.5167 79.9248 63.4995 78.7797 63.4995 77.4302C63.4995 75.8879 64.7745 74.7428 66.0788 74.9356L66.0788 74.9356L66.0788 74.9356Z" transform="translate(0.00035858154 -1.9073486E-05)" id="Shape" fill="#FFFFFF" fill-rule="evenodd" stroke="none" />
      </g>
    </g>
  </g>
</svg>